solid OpenSCAD_Model
  facet normal -1 0 0
    outer loop
      vertex -33.9 19 13
      vertex -33.9 19 17.8
      vertex -33.9 35.513 13
    endloop
  endfacet
  facet normal -1 0 0
    outer loop
      vertex -33.9 35.513 13
      vertex -33.9 19 17.8
      vertex -33.9 37 17.8
    endloop
  endfacet
  facet normal -1 0 0
    outer loop
      vertex -33.9 35.513 13
      vertex -33.9 37 17.8
      vertex -33.9 37 15.5756
    endloop
  endfacet
  facet normal -0.980785 -0.195089 0
    outer loop
      vertex -33.9 19 13
      vertex -33.8315 18.6556 13
      vertex -33.9 19 17.8
    endloop
  endfacet
  facet normal -0.980785 -0.195089 0
    outer loop
      vertex -33.9 19 17.8
      vertex -33.8315 18.6556 13
      vertex -33.8315 18.6556 17.8
    endloop
  endfacet
  facet normal 0 0 -1
    outer loop
      vertex -33.9 19 13
      vertex -33.9 35.513 13
      vertex -33.8315 18.6556 13
    endloop
  endfacet
  facet normal 0 0 -1
    outer loop
      vertex -28.5 34.7 13
      vertex -33.9 35.513 13
      vertex -23.85 35.513 13
    endloop
  endfacet
  facet normal 0 0 -1
    outer loop
      vertex -20.675 20.4357 13
      vertex -27.2979 26.2021 13
      vertex -24.85 27.667 13
    endloop
  endfacet
  facet normal 0 0 -1
    outer loop
      vertex -28.5 26.7 13
      vertex -23.85 34.6347 13
      vertex -21.35 34.6347 13
    endloop
  endfacet
  facet normal 0 0 -1
    outer loop
      vertex -20.675 34.8983 13
      vertex -21.35 35.513 13
      vertex -11.65 35.513 13
    endloop
  endfacet
  facet normal 0 0 -1
    outer loop
      vertex -12.325 34.8983 13
      vertex -11.65 35.513 13
      vertex -11.65 34.6347 13
    endloop
  endfacet
  facet normal 0 0 -1
    outer loop
      vertex -9.15 34.6347 13
      vertex -9.15 35.513 13
      vertex 0.9 35.513 13
    endloop
  endfacet
  facet normal 0 0 -1
    outer loop
      vertex -12.325 34.8983 13
      vertex -11.65 34.6347 13
      vertex -5.70208 31.7979 13
    endloop
  endfacet
  facet normal 0 0 -1
    outer loop
      vertex -2.8 25 13
      vertex 0.9 35.513 13
      vertex 0.9 19 13
    endloop
  endfacet
  facet normal 0 0 -1
    outer loop
      vertex -33.8315 18.6556 13
      vertex 0.9 19 13
      vertex 0.831492 18.6556 13
    endloop
  endfacet
  facet normal 0 0 -1
    outer loop
      vertex -33.8315 18.6556 13
      vertex 0.831492 18.6556 13
      vertex 0.636396 18.3636 13
    endloop
  endfacet
  facet normal 0 0 -1
    outer loop
      vertex -33.8315 18.6556 13
      vertex 0.636396 18.3636 13
      vertex 0.344415 18.1685 13
    endloop
  endfacet
  facet normal 0 0 -1
    outer loop
      vertex -33.8315 18.6556 13
      vertex 0.344415 18.1685 13
      vertex 0 18.1 13
    endloop
  endfacet
  facet normal 0 0 -1
    outer loop
      vertex -33.8315 18.6556 13
      vertex 0 18.1 13
      vertex -33 18.1 13
    endloop
  endfacet
  facet normal 0 0 -1
    outer loop
      vertex -33.8315 18.6556 13
      vertex -33 18.1 13
      vertex -33.3444 18.1685 13
    endloop
  endfacet
  facet normal 0 0 -1
    outer loop
      vertex -33.8315 18.6556 13
      vertex -33.3444 18.1685 13
      vertex -33.6364 18.3636 13
    endloop
  endfacet
  facet normal 0 0 -1
    outer loop
      vertex -33.8315 18.6556 13
      vertex -33.9 35.513 13
      vertex -30.2 25 13
    endloop
  endfacet
  facet normal 0 0 -1
    outer loop
      vertex -28.5 26.7 13
      vertex -21.35 34.6347 13
      vertex -27.2979 26.2021 13
    endloop
  endfacet
  facet normal 0 0 -1
    outer loop
      vertex -29.7021 23.7979 13
      vertex -28.5 23.3 13
      vertex -33.8315 18.6556 13
    endloop
  endfacet
  facet normal 0 0 -1
    outer loop
      vertex -28.5 23.3 13
      vertex -27.2979 23.7979 13
      vertex -33.8315 18.6556 13
    endloop
  endfacet
  facet normal 0 0 -1
    outer loop
      vertex -29.7021 26.2021 13
      vertex -23.85 34.6347 13
      vertex -28.5 26.7 13
    endloop
  endfacet
  facet normal 0 0 -1
    outer loop
      vertex -30.2 25 13
      vertex -33.9 35.513 13
      vertex -29.7021 26.2021 13
    endloop
  endfacet
  facet normal 0 0 -1
    outer loop
      vertex -26.8 33 13
      vertex -23.85 35.513 13
      vertex -27.2979 31.7979 13
    endloop
  endfacet
  facet normal 0 0 -1
    outer loop
      vertex -29.7021 26.2021 13
      vertex -33.9 35.513 13
      vertex -30.2 33 13
    endloop
  endfacet
  facet normal 0 0 -1
    outer loop
      vertex -29.7021 26.2021 13
      vertex -30.2 33 13
      vertex -29.7021 31.7979 13
    endloop
  endfacet
  facet normal 0 0 -1
    outer loop
      vertex -20.675 20.4357 13
      vertex -26.8 25 13
      vertex -27.2979 26.2021 13
    endloop
  endfacet
  facet normal 0 0 -1
    outer loop
      vertex -29.7021 26.2021 13
      vertex -29.7021 31.7979 13
      vertex -28.5 31.3 13
    endloop
  endfacet
  facet normal 0 0 -1
    outer loop
      vertex -29.7021 26.2021 13
      vertex -28.5 31.3 13
      vertex -27.2979 31.7979 13
    endloop
  endfacet
  facet normal 0 0 -1
    outer loop
      vertex -29.7021 26.2021 13
      vertex -27.2979 31.7979 13
      vertex -23.85 35.513 13
    endloop
  endfacet
  facet normal 0 0 -1
    outer loop
      vertex -27.2979 34.2021 13
      vertex -23.85 35.513 13
      vertex -26.8 33 13
    endloop
  endfacet
  facet normal 0 0 -1
    outer loop
      vertex -24.85 27.667 13
      vertex -21.35 34.6347 13
      vertex -20.675 34.8983 13
    endloop
  endfacet
  facet normal 0 0 -1
    outer loop
      vertex -29.7021 34.2021 13
      vertex -33.9 35.513 13
      vertex -28.5 34.7 13
    endloop
  endfacet
  facet normal 0 0 -1
    outer loop
      vertex -3.29792 23.7979 13
      vertex 0.9 19 13
      vertex -4.5 23.3 13
    endloop
  endfacet
  facet normal 0 0 -1
    outer loop
      vertex -27.2979 34.2021 13
      vertex -28.5 34.7 13
      vertex -23.85 35.513 13
    endloop
  endfacet
  facet normal 0 0 -1
    outer loop
      vertex -30.2 33 13
      vertex -33.9 35.513 13
      vertex -29.7021 34.2021 13
    endloop
  endfacet
  facet normal 0 0 -1
    outer loop
      vertex -20.675 20.4357 13
      vertex -33.8315 18.6556 13
      vertex -27.2979 23.7979 13
    endloop
  endfacet
  facet normal 0 0 -1
    outer loop
      vertex -21.35 34.6347 13
      vertex -24.85 27.667 13
      vertex -27.2979 26.2021 13
    endloop
  endfacet
  facet normal 0 0 -1
    outer loop
      vertex -33.8315 18.6556 13
      vertex -20.675 20.4357 13
      vertex 0.9 19 13
    endloop
  endfacet
  facet normal 0 0 -1
    outer loop
      vertex -3.29792 31.7979 13
      vertex 0.9 35.513 13
      vertex -12.325 20.4357 13
    endloop
  endfacet
  facet normal 0 0 -1
    outer loop
      vertex -20.675 20.4357 13
      vertex -12.325 20.4357 13
      vertex 0.9 19 13
    endloop
  endfacet
  facet normal 0 0 -1
    outer loop
      vertex -12.325 34.8983 13
      vertex -5.70208 31.7979 13
      vertex -8.15 27.667 13
    endloop
  endfacet
  facet normal 0 0 -1
    outer loop
      vertex -5.70208 31.7979 13
      vertex -4.5 31.3 13
      vertex -8.15 27.667 13
    endloop
  endfacet
  facet normal 0 0 -1
    outer loop
      vertex -21.35 34.6347 13
      vertex -21.35 35.513 13
      vertex -20.675 34.8983 13
    endloop
  endfacet
  facet normal 0 0 -1
    outer loop
      vertex -20.675 20.4357 13
      vertex -27.2979 23.7979 13
      vertex -26.8 25 13
    endloop
  endfacet
  facet normal 0 0 -1
    outer loop
      vertex -3.29792 31.7979 13
      vertex -8.15 27.667 13
      vertex -4.5 31.3 13
    endloop
  endfacet
  facet normal 0 0 -1
    outer loop
      vertex -12.325 20.4357 13
      vertex -6.2 25 13
      vertex -5.70208 23.7979 13
    endloop
  endfacet
  facet normal 0 0 -1
    outer loop
      vertex -12.325 20.4357 13
      vertex -5.70208 23.7979 13
      vertex 0.9 19 13
    endloop
  endfacet
  facet normal 0 0 -1
    outer loop
      vertex -5.70208 23.7979 13
      vertex -4.5 23.3 13
      vertex 0.9 19 13
    endloop
  endfacet
  facet normal 0 0 -1
    outer loop
      vertex -5.70208 26.2021 13
      vertex 0.9 35.513 13
      vertex -4.5 26.7 13
    endloop
  endfacet
  facet normal 0 0 -1
    outer loop
      vertex -3.29792 26.2021 13
      vertex 0.9 35.513 13
      vertex -2.8 25 13
    endloop
  endfacet
  facet normal 0 0 -1
    outer loop
      vertex -3.29792 23.7979 13
      vertex -2.8 25 13
      vertex 0.9 19 13
    endloop
  endfacet
  facet normal 0 0 -1
    outer loop
      vertex -4.5 26.7 13
      vertex 0.9 35.513 13
      vertex -3.29792 26.2021 13
    endloop
  endfacet
  facet normal 0 0 -1
    outer loop
      vertex -12.325 20.4357 13
      vertex 0.9 35.513 13
      vertex -5.70208 26.2021 13
    endloop
  endfacet
  facet normal 0 0 -1
    outer loop
      vertex -12.325 20.4357 13
      vertex -5.70208 26.2021 13
      vertex -6.2 25 13
    endloop
  endfacet
  facet normal 0 0 -1
    outer loop
      vertex -5.70208 34.2021 13
      vertex -9.15 34.6347 13
      vertex -4.5 34.7 13
    endloop
  endfacet
  facet normal 0 0 -1
    outer loop
      vertex -3.29792 34.2021 13
      vertex 0.9 35.513 13
      vertex -2.8 33 13
    endloop
  endfacet
  facet normal 0 0 -1
    outer loop
      vertex -11.65 34.6347 13
      vertex -6.2 33 13
      vertex -5.70208 31.7979 13
    endloop
  endfacet
  facet normal 0 0 -1
    outer loop
      vertex -11.65 34.6347 13
      vertex -9.15 34.6347 13
      vertex -6.2 33 13
    endloop
  endfacet
  facet normal 0 0 -1
    outer loop
      vertex -2.8 33 13
      vertex 0.9 35.513 13
      vertex -3.29792 31.7979 13
    endloop
  endfacet
  facet normal 0 0 -1
    outer loop
      vertex -8.15 27.667 13
      vertex -3.29792 31.7979 13
      vertex -12.325 20.4357 13
    endloop
  endfacet
  facet normal 0 0 -1
    outer loop
      vertex -4.5 34.7 13
      vertex 0.9 35.513 13
      vertex -3.29792 34.2021 13
    endloop
  endfacet
  facet normal 0 0 -1
    outer loop
      vertex -9.15 34.6347 13
      vertex 0.9 35.513 13
      vertex -4.5 34.7 13
    endloop
  endfacet
  facet normal 0 0 -1
    outer loop
      vertex -9.15 34.6347 13
      vertex -5.70208 34.2021 13
      vertex -6.2 33 13
    endloop
  endfacet
  facet normal 0 0 -1
    outer loop
      vertex -29.7021 23.7979 13
      vertex -33.8315 18.6556 13
      vertex -30.2 25 13
    endloop
  endfacet
  facet normal 0 0 -1
    outer loop
      vertex -29.7021 26.2021 13
      vertex -23.85 35.513 13
      vertex -23.85 34.6347 13
    endloop
  endfacet
  facet normal 0 0 -1
    outer loop
      vertex -20.675 34.8983 13
      vertex -11.65 35.513 13
      vertex -12.325 34.8983 13
    endloop
  endfacet
  facet normal 1.92296e-16 0.866025 -0.5
    outer loop
      vertex -33.8315 37.3444 16.1722
      vertex -33.6364 37.6364 16.6779
      vertex -33.9 37 15.5756
    endloop
  endfacet
  facet normal 1.92296e-16 0.866025 -0.5
    outer loop
      vertex -33.9 37 15.5756
      vertex -33.6364 37.6364 16.6779
      vertex -33.3444 37.8315 17.0158
    endloop
  endfacet
  facet normal 1.92296e-16 0.866025 -0.5
    outer loop
      vertex -33.9 37 15.5756
      vertex -33.3444 37.8315 17.0158
      vertex -33 37.9 17.1345
    endloop
  endfacet
  facet normal 1.92296e-16 0.866025 -0.5
    outer loop
      vertex -33.9 37 15.5756
      vertex -33 37.9 17.1345
      vertex -23.85 37.9 17.1345
    endloop
  endfacet
  facet normal 1.92296e-16 0.866025 -0.5
    outer loop
      vertex -33.9 37 15.5756
      vertex -23.85 37.9 17.1345
      vertex -23.85 35.513 13
    endloop
  endfacet
  facet normal 1.92296e-16 0.866025 -0.5
    outer loop
      vertex -33.9 37 15.5756
      vertex -23.85 35.513 13
      vertex -33.9 35.513 13
    endloop
  endfacet
  facet normal -0.980785 0.195089 0
    outer loop
      vertex -33.9 37 15.5756
      vertex -33.9 37 17.8
      vertex -33.8315 37.3444 16.1722
    endloop
  endfacet
  facet normal -0.980785 0.195089 0
    outer loop
      vertex -33.8315 37.3444 16.1722
      vertex -33.9 37 17.8
      vertex -33.8315 37.3444 17.8
    endloop
  endfacet
  facet normal 0 0 1
    outer loop
      vertex -33.9 37 17.8
      vertex -33.9 19 17.8
      vertex -33.8315 18.6556 17.8
    endloop
  endfacet
  facet normal 0 0 1
    outer loop
      vertex -33.6 25 17.8
      vertex -33.9 37 17.8
      vertex -33.6364 18.3636 17.8
    endloop
  endfacet
  facet normal 0 0 1
    outer loop
      vertex -33.6364 18.3636 17.8
      vertex -33.9 37 17.8
      vertex -33.8315 18.6556 17.8
    endloop
  endfacet
  facet normal 0 0 1
    outer loop
      vertex -33.6 25 17.8
      vertex -33.4262 26.32 17.8
      vertex -33.9 37 17.8
    endloop
  endfacet
  facet normal 0 0 1
    outer loop
      vertex -9.57348 25.2015 17.8
      vertex -12.325 20.4357 17.8
      vertex -9.6 25 17.8
    endloop
  endfacet
  facet normal 0 0 1
    outer loop
      vertex -9.42622 23.68 17.8
      vertex -12.325 20.4357 17.8
      vertex -8.91673 22.45 17.8
    endloop
  endfacet
  facet normal 0 0 1
    outer loop
      vertex -8.10624 21.3938 17.8
      vertex -12.325 20.4357 17.8
      vertex -7.05 20.5833 17.8
    endloop
  endfacet
  facet normal 0 0 1
    outer loop
      vertex -7.05 20.5833 17.8
      vertex -12.325 20.4357 17.8
      vertex -5.81998 20.0738 17.8
    endloop
  endfacet
  facet normal 0 0 1
    outer loop
      vertex -5.81998 20.0738 17.8
      vertex -12.325 20.4357 17.8
      vertex 0 18.1 17.8
    endloop
  endfacet
  facet normal 0 0 1
    outer loop
      vertex -32.9167 22.45 17.8
      vertex -33.4262 23.68 17.8
      vertex -33 18.1 17.8
    endloop
  endfacet
  facet normal 0 0 1
    outer loop
      vertex -3.18002 20.0738 17.8
      vertex -4.5 19.9 17.8
      vertex 0 18.1 17.8
    endloop
  endfacet
  facet normal 0 0 1
    outer loop
      vertex -21.35 37.9 17.8
      vertex -21.35 35.9209 17.8
      vertex -11.65 35.9209 17.8
    endloop
  endfacet
  facet normal 0 0 1
    outer loop
      vertex -23.85 35.9209 17.8
      vertex -23.85 37.9 17.8
      vertex -33.9 37 17.8
    endloop
  endfacet
  facet normal 0 0 1
    outer loop
      vertex -33.4262 26.32 17.8
      vertex -32.9167 27.55 17.8
      vertex -33.9 37 17.8
    endloop
  endfacet
  facet normal 0 0 1
    outer loop
      vertex -8.10624 28.6062 17.8
      vertex -7.05 29.4167 17.8
      vertex -12.325 34.8983 17.8
    endloop
  endfacet
  facet normal 0 0 1
    outer loop
      vertex -33 37.9 17.8
      vertex -33.9 37 17.8
      vertex -23.85 37.9 17.8
    endloop
  endfacet
  facet normal 0 0 1
    outer loop
      vertex -33.3444 37.8315 17.8
      vertex -33.9 37 17.8
      vertex -33 37.9 17.8
    endloop
  endfacet
  facet normal 0 0 1
    outer loop
      vertex -33.6364 37.6364 17.8
      vertex -33.9 37 17.8
      vertex -33.3444 37.8315 17.8
    endloop
  endfacet
  facet normal 0 0 1
    outer loop
      vertex -33.8315 37.3444 17.8
      vertex -33.9 37 17.8
      vertex -33.6364 37.6364 17.8
    endloop
  endfacet
  facet normal 0 0 1
    outer loop
      vertex -33 18.1 17.8
      vertex -33.4262 23.68 17.8
      vertex -33.3444 18.1685 17.8
    endloop
  endfacet
  facet normal 0 0 1
    outer loop
      vertex -33.3444 18.1685 17.8
      vertex -33.6 25 17.8
      vertex -33.6364 18.3636 17.8
    endloop
  endfacet
  facet normal 0 0 1
    outer loop
      vertex -33.4262 23.68 17.8
      vertex -33.6 25 17.8
      vertex -33.3444 18.1685 17.8
    endloop
  endfacet
  facet normal 0 0 1
    outer loop
      vertex -1.95 20.5833 17.8
      vertex 0.831492 18.6556 17.8
      vertex 0.9 19 17.8
    endloop
  endfacet
  facet normal 0 0 1
    outer loop
      vertex -32.1062 28.6062 17.8
      vertex -33.9 37 17.8
      vertex -32.9167 27.55 17.8
    endloop
  endfacet
  facet normal 0 0 1
    outer loop
      vertex -31.05 29.4167 17.8
      vertex -33.9 37 17.8
      vertex -32.1062 28.6062 17.8
    endloop
  endfacet
  facet normal 0 0 1
    outer loop
      vertex -29.82 29.9262 17.8
      vertex -33.9 37 17.8
      vertex -31.05 29.4167 17.8
    endloop
  endfacet
  facet normal 0 0 1
    outer loop
      vertex -28.5 30.1 17.8
      vertex -33.9 37 17.8
      vertex -29.82 29.9262 17.8
    endloop
  endfacet
  facet normal 0 0 1
    outer loop
      vertex -29.7021 31.7979 17.8
      vertex -33.9 37 17.8
      vertex -28.5 30.1 17.8
    endloop
  endfacet
  facet normal 0 0 1
    outer loop
      vertex -29.7021 34.2021 17.8
      vertex -28.5 34.7 17.8
      vertex -33.9 37 17.8
    endloop
  endfacet
  facet normal 0 0 1
    outer loop
      vertex -7.05 29.4167 17.8
      vertex -5.81998 29.9262 17.8
      vertex -11.65 35.9209 17.8
    endloop
  endfacet
  facet normal 0 0 1
    outer loop
      vertex -21.35 35.9209 17.8
      vertex -23.85 35.9209 17.8
      vertex -20.675 34.8983 17.8
    endloop
  endfacet
  facet normal 0 0 1
    outer loop
      vertex -11.65 35.9209 17.8
      vertex -21.35 35.9209 17.8
      vertex -12.325 34.8983 17.8
    endloop
  endfacet
  facet normal 0 0 1
    outer loop
      vertex -1.95 20.5833 17.8
      vertex 0.636396 18.3636 17.8
      vertex 0.831492 18.6556 17.8
    endloop
  endfacet
  facet normal 0 0 1
    outer loop
      vertex -1.95 20.5833 17.8
      vertex 0.344415 18.1685 17.8
      vertex 0.636396 18.3636 17.8
    endloop
  endfacet
  facet normal 0 0 1
    outer loop
      vertex -12.325 34.8983 17.8
      vertex -8.44066 28.1704 17.8
      vertex -8.10624 28.6062 17.8
    endloop
  endfacet
  facet normal 0 0 1
    outer loop
      vertex -1.95 20.5833 17.8
      vertex -3.18002 20.0738 17.8
      vertex 0.344415 18.1685 17.8
    endloop
  endfacet
  facet normal 0 0 1
    outer loop
      vertex -11.65 35.9209 17.8
      vertex -12.325 34.8983 17.8
      vertex -7.05 29.4167 17.8
    endloop
  endfacet
  facet normal 0 0 1
    outer loop
      vertex 0.6 25 17.8
      vertex 0.426222 23.68 17.8
      vertex 0.9 19 17.8
    endloop
  endfacet
  facet normal 0 0 1
    outer loop
      vertex -9.15 35.9209 17.8
      vertex -11.65 35.9209 17.8
      vertex -5.81998 29.9262 17.8
    endloop
  endfacet
  facet normal 0 0 1
    outer loop
      vertex -5.70208 31.7979 17.8
      vertex -9.15 35.9209 17.8
      vertex -4.5 30.1 17.8
    endloop
  endfacet
  facet normal 0 0 1
    outer loop
      vertex 0.9 37 17.8
      vertex -4.5 30.1 17.8
      vertex -3.18002 29.9262 17.8
    endloop
  endfacet
  facet normal 0 0 1
    outer loop
      vertex 0.9 37 17.8
      vertex -3.18002 29.9262 17.8
      vertex -1.95 29.4167 17.8
    endloop
  endfacet
  facet normal 0 0 1
    outer loop
      vertex 0.9 37 17.8
      vertex -1.95 29.4167 17.8
      vertex -0.893755 28.6062 17.8
    endloop
  endfacet
  facet normal 0 0 1
    outer loop
      vertex -0.08327 22.45 17.8
      vertex -0.893755 21.3938 17.8
      vertex 0.9 19 17.8
    endloop
  endfacet
  facet normal 0 0 1
    outer loop
      vertex 0.9 37 17.8
      vertex -0.893755 28.6062 17.8
      vertex -0.08327 27.55 17.8
    endloop
  endfacet
  facet normal 0 0 1
    outer loop
      vertex 0.9 37 17.8
      vertex -0.08327 27.55 17.8
      vertex 0.426222 26.32 17.8
    endloop
  endfacet
  facet normal 0 0 1
    outer loop
      vertex 0.9 37 17.8
      vertex 0.6 25 17.8
      vertex 0.9 19 17.8
    endloop
  endfacet
  facet normal 0 0 1
    outer loop
      vertex 0.9 37 17.8
      vertex 0.426222 26.32 17.8
      vertex 0.6 25 17.8
    endloop
  endfacet
  facet normal 0 0 1
    outer loop
      vertex -5.81998 29.9262 17.8
      vertex -4.5 30.1 17.8
      vertex -9.15 35.9209 17.8
    endloop
  endfacet
  facet normal 0 0 1
    outer loop
      vertex 0.344415 18.1685 17.8
      vertex -3.18002 20.0738 17.8
      vertex 0 18.1 17.8
    endloop
  endfacet
  facet normal 0 0 1
    outer loop
      vertex -9.6 25 17.8
      vertex -12.325 20.4357 17.8
      vertex -9.42622 23.68 17.8
    endloop
  endfacet
  facet normal 0 0 1
    outer loop
      vertex -24.0833 22.45 17.8
      vertex -24.8938 21.3938 17.8
      vertex -20.675 20.4357 17.8
    endloop
  endfacet
  facet normal 0 0 1
    outer loop
      vertex -8.91673 22.45 17.8
      vertex -12.325 20.4357 17.8
      vertex -8.10624 21.3938 17.8
    endloop
  endfacet
  facet normal 0 0 1
    outer loop
      vertex -20.675 34.8983 17.8
      vertex -12.325 34.8983 17.8
      vertex -21.35 35.9209 17.8
    endloop
  endfacet
  facet normal 0 0 1
    outer loop
      vertex 0.426222 23.68 17.8
      vertex -0.08327 22.45 17.8
      vertex 0.9 19 17.8
    endloop
  endfacet
  facet normal 0 0 1
    outer loop
      vertex 0 18.1 17.8
      vertex -12.325 20.4357 17.8
      vertex -33 18.1 17.8
    endloop
  endfacet
  facet normal 0 0 1
    outer loop
      vertex -12.325 20.4357 17.8
      vertex -20.675 20.4357 17.8
      vertex -33 18.1 17.8
    endloop
  endfacet
  facet normal 0 0 1
    outer loop
      vertex -27.18 20.0738 17.8
      vertex -28.5 19.9 17.8
      vertex -33 18.1 17.8
    endloop
  endfacet
  facet normal 0 0 1
    outer loop
      vertex -20.675 20.4357 17.8
      vertex -23.4265 25.2015 17.8
      vertex -23.4 25 17.8
    endloop
  endfacet
  facet normal 0 0 1
    outer loop
      vertex -20.675 20.4357 17.8
      vertex -23.4 25 17.8
      vertex -23.5738 23.68 17.8
    endloop
  endfacet
  facet normal 0 0 1
    outer loop
      vertex -30.2 33 17.8
      vertex -29.7021 34.2021 17.8
      vertex -33.9 37 17.8
    endloop
  endfacet
  facet normal 0 0 1
    outer loop
      vertex -23.5738 23.68 17.8
      vertex -24.0833 22.45 17.8
      vertex -20.675 20.4357 17.8
    endloop
  endfacet
  facet normal 0 0 1
    outer loop
      vertex -28.5 31.3 17.8
      vertex -29.7021 31.7979 17.8
      vertex -27.18 29.9262 17.8
    endloop
  endfacet
  facet normal 0 0 1
    outer loop
      vertex -28.5 19.9 17.8
      vertex -29.82 20.0738 17.8
      vertex -33 18.1 17.8
    endloop
  endfacet
  facet normal 0 0 1
    outer loop
      vertex -20.675 20.4357 17.8
      vertex -24.8938 21.3938 17.8
      vertex -25.95 20.5833 17.8
    endloop
  endfacet
  facet normal 0 0 1
    outer loop
      vertex -20.675 20.4357 17.8
      vertex -27.18 20.0738 17.8
      vertex -33 18.1 17.8
    endloop
  endfacet
  facet normal 0 0 1
    outer loop
      vertex -20.675 20.4357 17.8
      vertex -25.95 20.5833 17.8
      vertex -27.18 20.0738 17.8
    endloop
  endfacet
  facet normal 0 0 1
    outer loop
      vertex -29.82 20.0738 17.8
      vertex -31.05 20.5833 17.8
      vertex -33 18.1 17.8
    endloop
  endfacet
  facet normal 0 0 1
    outer loop
      vertex -31.05 20.5833 17.8
      vertex -32.1062 21.3938 17.8
      vertex -33 18.1 17.8
    endloop
  endfacet
  facet normal 0 0 1
    outer loop
      vertex -32.1062 21.3938 17.8
      vertex -32.9167 22.45 17.8
      vertex -33 18.1 17.8
    endloop
  endfacet
  facet normal 0 0 1
    outer loop
      vertex -27.18 29.9262 17.8
      vertex -29.7021 31.7979 17.8
      vertex -28.5 30.1 17.8
    endloop
  endfacet
  facet normal 0 0 1
    outer loop
      vertex -30.2 33 17.8
      vertex -33.9 37 17.8
      vertex -29.7021 31.7979 17.8
    endloop
  endfacet
  facet normal 0 0 1
    outer loop
      vertex -4.5 34.7 17.8
      vertex -3.29792 34.2021 17.8
      vertex 0.9 37 17.8
    endloop
  endfacet
  facet normal 0 0 1
    outer loop
      vertex -23.85 35.9209 17.8
      vertex -33.9 37 17.8
      vertex -28.5 34.7 17.8
    endloop
  endfacet
  facet normal 0 0 1
    outer loop
      vertex -0.893755 21.3938 17.8
      vertex -1.95 20.5833 17.8
      vertex 0.9 19 17.8
    endloop
  endfacet
  facet normal 0 0 1
    outer loop
      vertex -23.85 35.9209 17.8
      vertex -28.5 34.7 17.8
      vertex -27.2979 34.2021 17.8
    endloop
  endfacet
  facet normal 0 0 1
    outer loop
      vertex -27.2979 31.7979 17.8
      vertex -28.5 31.3 17.8
      vertex -27.18 29.9262 17.8
    endloop
  endfacet
  facet normal 0 0 1
    outer loop
      vertex -4.5 31.3 17.8
      vertex -5.70208 31.7979 17.8
      vertex -4.5 30.1 17.8
    endloop
  endfacet
  facet normal 0 0 1
    outer loop
      vertex -6.2 33 17.8
      vertex -9.15 35.9209 17.8
      vertex -5.70208 31.7979 17.8
    endloop
  endfacet
  facet normal 0 0 1
    outer loop
      vertex -5.70208 34.2021 17.8
      vertex -9.15 35.9209 17.8
      vertex -6.2 33 17.8
    endloop
  endfacet
  facet normal 0 0 1
    outer loop
      vertex 0.9 37 17.8
      vertex -9.15 35.9209 17.8
      vertex -5.70208 34.2021 17.8
    endloop
  endfacet
  facet normal 0 0 1
    outer loop
      vertex -3.29792 34.2021 17.8
      vertex -2.8 33 17.8
      vertex 0.9 37 17.8
    endloop
  endfacet
  facet normal 0 0 1
    outer loop
      vertex 0.9 37 17.8
      vertex -5.70208 34.2021 17.8
      vertex -4.5 34.7 17.8
    endloop
  endfacet
  facet normal 0 0 1
    outer loop
      vertex -3.29792 31.7979 17.8
      vertex -4.5 31.3 17.8
      vertex -4.5 30.1 17.8
    endloop
  endfacet
  facet normal 0 0 1
    outer loop
      vertex 0.9 37 17.8
      vertex -3.29792 31.7979 17.8
      vertex -4.5 30.1 17.8
    endloop
  endfacet
  facet normal 0 0 1
    outer loop
      vertex 0.9 37 17.8
      vertex -2.8 33 17.8
      vertex -3.29792 31.7979 17.8
    endloop
  endfacet
  facet normal 0 0 1
    outer loop
      vertex -21.35 37.9 17.8
      vertex -11.65 35.9209 17.8
      vertex -11.65 37.9 17.8
    endloop
  endfacet
  facet normal 0 0 1
    outer loop
      vertex -9.15 37.9 17.8
      vertex 0.344415 37.8315 17.8
      vertex 0 37.9 17.8
    endloop
  endfacet
  facet normal 0 0 1
    outer loop
      vertex -9.15 37.9 17.8
      vertex 0.636396 37.6364 17.8
      vertex 0.344415 37.8315 17.8
    endloop
  endfacet
  facet normal 0 0 1
    outer loop
      vertex -9.15 37.9 17.8
      vertex 0.831492 37.3444 17.8
      vertex 0.636396 37.6364 17.8
    endloop
  endfacet
  facet normal 0 0 1
    outer loop
      vertex -9.15 37.9 17.8
      vertex 0.9 37 17.8
      vertex 0.831492 37.3444 17.8
    endloop
  endfacet
  facet normal 0 0 1
    outer loop
      vertex -9.15 37.9 17.8
      vertex -9.15 35.9209 17.8
      vertex 0.9 37 17.8
    endloop
  endfacet
  facet normal 0 0 1
    outer loop
      vertex -4.5 19.9 17.8
      vertex -5.81998 20.0738 17.8
      vertex 0 18.1 17.8
    endloop
  endfacet
  facet normal 0 0 1
    outer loop
      vertex -24.8938 28.6062 17.8
      vertex -27.2979 31.7979 17.8
      vertex -25.95 29.4167 17.8
    endloop
  endfacet
  facet normal 0 0 1
    outer loop
      vertex -24.5593 28.1704 17.8
      vertex -27.2979 31.7979 17.8
      vertex -24.8938 28.6062 17.8
    endloop
  endfacet
  facet normal 0 0 1
    outer loop
      vertex -27.2979 31.7979 17.8
      vertex -27.18 29.9262 17.8
      vertex -25.95 29.4167 17.8
    endloop
  endfacet
  facet normal 0 0 1
    outer loop
      vertex -24.5593 28.1704 17.8
      vertex -26.8 33 17.8
      vertex -27.2979 31.7979 17.8
    endloop
  endfacet
  facet normal 0 0 1
    outer loop
      vertex -24.5593 28.1704 17.8
      vertex -27.2979 34.2021 17.8
      vertex -26.8 33 17.8
    endloop
  endfacet
  facet normal 0 0 1
    outer loop
      vertex -24.5593 28.1704 17.8
      vertex -23.85 35.9209 17.8
      vertex -27.2979 34.2021 17.8
    endloop
  endfacet
  facet normal 0 0 1
    outer loop
      vertex -24.5593 28.1704 17.8
      vertex -20.675 34.8983 17.8
      vertex -23.85 35.9209 17.8
    endloop
  endfacet
  facet normal -0.831469 -0.555571 0
    outer loop
      vertex -33.8315 18.6556 13
      vertex -33.6364 18.3636 13
      vertex -33.8315 18.6556 17.8
    endloop
  endfacet
  facet normal -0.831469 -0.555571 0
    outer loop
      vertex -33.8315 18.6556 17.8
      vertex -33.6364 18.3636 13
      vertex -33.6364 18.3636 17.8
    endloop
  endfacet
  facet normal -0.555571 -0.831469 0
    outer loop
      vertex -33.6364 18.3636 17.8
      vertex -33.6364 18.3636 13
      vertex -33.3444 18.1685 13
    endloop
  endfacet
  facet normal -0.555571 -0.831469 0
    outer loop
      vertex -33.3444 18.1685 17.8
      vertex -33.6364 18.3636 17.8
      vertex -33.3444 18.1685 13
    endloop
  endfacet
  facet normal -0.195089 -0.980785 0
    outer loop
      vertex -33.3444 18.1685 17.8
      vertex -33.3444 18.1685 13
      vertex -33 18.1 13
    endloop
  endfacet
  facet normal -0.195089 -0.980785 0
    outer loop
      vertex -33 18.1 17.8
      vertex -33.3444 18.1685 17.8
      vertex -33 18.1 13
    endloop
  endfacet
  facet normal 0 -1 0
    outer loop
      vertex -33 18.1 17.8
      vertex -33 18.1 13
      vertex 0 18.1 13
    endloop
  endfacet
  facet normal 0 -1 0
    outer loop
      vertex 0 18.1 17.8
      vertex -33 18.1 17.8
      vertex 0 18.1 13
    endloop
  endfacet
  facet normal 0.195089 -0.980785 0
    outer loop
      vertex 0 18.1 17.8
      vertex 0 18.1 13
      vertex 0.344415 18.1685 13
    endloop
  endfacet
  facet normal 0.195089 -0.980785 0
    outer loop
      vertex 0.344415 18.1685 17.8
      vertex 0 18.1 17.8
      vertex 0.344415 18.1685 13
    endloop
  endfacet
  facet normal 0.555571 -0.831469 0
    outer loop
      vertex 0.344415 18.1685 17.8
      vertex 0.344415 18.1685 13
      vertex 0.636396 18.3636 13
    endloop
  endfacet
  facet normal 0.555571 -0.831469 0
    outer loop
      vertex 0.636396 18.3636 17.8
      vertex 0.344415 18.1685 17.8
      vertex 0.636396 18.3636 13
    endloop
  endfacet
  facet normal 0.831469 -0.555571 0
    outer loop
      vertex 0.636396 18.3636 17.8
      vertex 0.636396 18.3636 13
      vertex 0.831492 18.6556 13
    endloop
  endfacet
  facet normal 0.831469 -0.555571 0
    outer loop
      vertex 0.831492 18.6556 17.8
      vertex 0.636396 18.3636 17.8
      vertex 0.831492 18.6556 13
    endloop
  endfacet
  facet normal 0.980785 -0.195089 0
    outer loop
      vertex 0.831492 18.6556 17.8
      vertex 0.831492 18.6556 13
      vertex 0.9 19 13
    endloop
  endfacet
  facet normal 0.980785 -0.195089 0
    outer loop
      vertex 0.9 19 17.8
      vertex 0.831492 18.6556 17.8
      vertex 0.9 19 13
    endloop
  endfacet
  facet normal 1 0 0
    outer loop
      vertex 0.9 19 17.8
      vertex 0.9 19 13
      vertex 0.9 35.513 13
    endloop
  endfacet
  facet normal 1 0 0
    outer loop
      vertex 0.9 37 17.8
      vertex 0.9 19 17.8
      vertex 0.9 37 15.5756
    endloop
  endfacet
  facet normal 1 0 0
    outer loop
      vertex 0.9 37 15.5756
      vertex 0.9 19 17.8
      vertex 0.9 35.513 13
    endloop
  endfacet
  facet normal 1.92296e-16 0.866025 -0.5
    outer loop
      vertex 0 37.9 17.1345
      vertex 0.344415 37.8315 17.0158
      vertex -9.15 37.9 17.1345
    endloop
  endfacet
  facet normal 1.92296e-16 0.866025 -0.5
    outer loop
      vertex -9.15 37.9 17.1345
      vertex 0.344415 37.8315 17.0158
      vertex 0.636396 37.6364 16.6779
    endloop
  endfacet
  facet normal 1.92296e-16 0.866025 -0.5
    outer loop
      vertex -9.15 37.9 17.1345
      vertex 0.636396 37.6364 16.6779
      vertex 0.831492 37.3444 16.1722
    endloop
  endfacet
  facet normal 1.92296e-16 0.866025 -0.5
    outer loop
      vertex -9.15 37.9 17.1345
      vertex 0.831492 37.3444 16.1722
      vertex 0.9 37 15.5756
    endloop
  endfacet
  facet normal 1.92296e-16 0.866025 -0.5
    outer loop
      vertex -9.15 37.9 17.1345
      vertex 0.9 37 15.5756
      vertex 0.9 35.513 13
    endloop
  endfacet
  facet normal 1.92296e-16 0.866025 -0.5
    outer loop
      vertex -9.15 37.9 17.1345
      vertex 0.9 35.513 13
      vertex -9.15 35.513 13
    endloop
  endfacet
  facet normal -1 0 0
    outer loop
      vertex -9.15 37.9 17.8
      vertex -9.15 37.9 17.1345
      vertex -9.15 35.9209 17.8
    endloop
  endfacet
  facet normal -1 0 0
    outer loop
      vertex -9.15 35.9209 17.8
      vertex -9.15 37.9 17.1345
      vertex -9.15 35.513 13
    endloop
  endfacet
  facet normal -1 0 0
    outer loop
      vertex -9.15 35.9209 17.8
      vertex -9.15 35.513 13
      vertex -9.15 34.6347 13
    endloop
  endfacet
  facet normal 0 0.965926 -0.258819
    outer loop
      vertex -9.15 35.9209 17.8
      vertex -9.15 34.6347 13
      vertex -11.65 35.9209 17.8
    endloop
  endfacet
  facet normal 0 0.965926 -0.258819
    outer loop
      vertex -11.65 35.9209 17.8
      vertex -9.15 34.6347 13
      vertex -11.65 34.6347 13
    endloop
  endfacet
  facet normal 1 0 0
    outer loop
      vertex -11.65 35.513 13
      vertex -11.65 37.9 17.1345
      vertex -11.65 37.9 17.8
    endloop
  endfacet
  facet normal 1 0 0
    outer loop
      vertex -11.65 34.6347 13
      vertex -11.65 35.513 13
      vertex -11.65 35.9209 17.8
    endloop
  endfacet
  facet normal 1 0 0
    outer loop
      vertex -11.65 35.9209 17.8
      vertex -11.65 35.513 13
      vertex -11.65 37.9 17.8
    endloop
  endfacet
  facet normal 1.92296e-16 0.866025 -0.5
    outer loop
      vertex -11.65 37.9 17.1345
      vertex -11.65 35.513 13
      vertex -21.35 37.9 17.1345
    endloop
  endfacet
  facet normal 1.92296e-16 0.866025 -0.5
    outer loop
      vertex -21.35 37.9 17.1345
      vertex -11.65 35.513 13
      vertex -21.35 35.513 13
    endloop
  endfacet
  facet normal -1 0 0
    outer loop
      vertex -21.35 37.9 17.8
      vertex -21.35 37.9 17.1345
      vertex -21.35 35.9209 17.8
    endloop
  endfacet
  facet normal -1 0 0
    outer loop
      vertex -21.35 35.9209 17.8
      vertex -21.35 37.9 17.1345
      vertex -21.35 35.513 13
    endloop
  endfacet
  facet normal -1 0 0
    outer loop
      vertex -21.35 35.9209 17.8
      vertex -21.35 35.513 13
      vertex -21.35 34.6347 13
    endloop
  endfacet
  facet normal 0 0.965926 -0.258819
    outer loop
      vertex -21.35 35.9209 17.8
      vertex -21.35 34.6347 13
      vertex -23.85 35.9209 17.8
    endloop
  endfacet
  facet normal 0 0.965926 -0.258819
    outer loop
      vertex -23.85 35.9209 17.8
      vertex -21.35 34.6347 13
      vertex -23.85 34.6347 13
    endloop
  endfacet
  facet normal 1 0 0
    outer loop
      vertex -23.85 35.513 13
      vertex -23.85 37.9 17.1345
      vertex -23.85 37.9 17.8
    endloop
  endfacet
  facet normal 1 0 0
    outer loop
      vertex -23.85 34.6347 13
      vertex -23.85 35.513 13
      vertex -23.85 35.9209 17.8
    endloop
  endfacet
  facet normal 1 0 0
    outer loop
      vertex -23.85 35.9209 17.8
      vertex -23.85 35.513 13
      vertex -23.85 37.9 17.8
    endloop
  endfacet
  facet normal 0.92388 -0.382683 0
    outer loop
      vertex -29.7021 26.2021 13
      vertex -29.7021 26.2021 16
      vertex -30.2 25 16
    endloop
  endfacet
  facet normal 0.92388 -0.382683 0
    outer loop
      vertex -30.2 25 13
      vertex -29.7021 26.2021 13
      vertex -30.2 25 16
    endloop
  endfacet
  facet normal 0.92388 0.382683 0
    outer loop
      vertex -30.2 25 16
      vertex -29.7021 23.7979 16
      vertex -29.7021 23.7979 13
    endloop
  endfacet
  facet normal 0.92388 0.382683 0
    outer loop
      vertex -30.2 25 13
      vertex -30.2 25 16
      vertex -29.7021 23.7979 13
    endloop
  endfacet
  facet normal 0.382683 -0.92388 0
    outer loop
      vertex -28.5 26.7 13
      vertex -28.5 26.7 16
      vertex -29.7021 26.2021 16
    endloop
  endfacet
  facet normal 0.382683 -0.92388 0
    outer loop
      vertex -29.7021 26.2021 13
      vertex -28.5 26.7 13
      vertex -29.7021 26.2021 16
    endloop
  endfacet
  facet normal -0.382683 -0.92388 0
    outer loop
      vertex -27.2979 26.2021 13
      vertex -27.2979 26.2021 16
      vertex -28.5 26.7 16
    endloop
  endfacet
  facet normal -0.382683 -0.92388 0
    outer loop
      vertex -28.5 26.7 13
      vertex -27.2979 26.2021 13
      vertex -28.5 26.7 16
    endloop
  endfacet
  facet normal -0.92388 -0.382683 0
    outer loop
      vertex -26.8 25 16
      vertex -27.2979 26.2021 16
      vertex -26.8 25 13
    endloop
  endfacet
  facet normal -0.92388 -0.382683 0
    outer loop
      vertex -26.8 25 13
      vertex -27.2979 26.2021 16
      vertex -27.2979 26.2021 13
    endloop
  endfacet
  facet normal -0.92388 0.382683 0
    outer loop
      vertex -26.8 25 16
      vertex -26.8 25 13
      vertex -27.2979 23.7979 16
    endloop
  endfacet
  facet normal -0.92388 0.382683 0
    outer loop
      vertex -27.2979 23.7979 16
      vertex -26.8 25 13
      vertex -27.2979 23.7979 13
    endloop
  endfacet
  facet normal -0.382683 0.92388 0
    outer loop
      vertex -27.2979 23.7979 16
      vertex -27.2979 23.7979 13
      vertex -28.5 23.3 16
    endloop
  endfacet
  facet normal -0.382683 0.92388 0
    outer loop
      vertex -28.5 23.3 16
      vertex -27.2979 23.7979 13
      vertex -28.5 23.3 13
    endloop
  endfacet
  facet normal 0.382683 0.92388 0
    outer loop
      vertex -28.5 23.3 16
      vertex -28.5 23.3 13
      vertex -29.7021 23.7979 16
    endloop
  endfacet
  facet normal 0.382683 0.92388 0
    outer loop
      vertex -29.7021 23.7979 16
      vertex -28.5 23.3 13
      vertex -29.7021 23.7979 13
    endloop
  endfacet
  facet normal 0.92388 -0.382683 0
    outer loop
      vertex -29.7021 34.2021 13
      vertex -29.7021 34.2021 17.8
      vertex -30.2 33 17.8
    endloop
  endfacet
  facet normal 0.92388 -0.382683 0
    outer loop
      vertex -30.2 33 13
      vertex -29.7021 34.2021 13
      vertex -30.2 33 17.8
    endloop
  endfacet
  facet normal 0.92388 0.382683 0
    outer loop
      vertex -30.2 33 17.8
      vertex -29.7021 31.7979 17.8
      vertex -29.7021 31.7979 13
    endloop
  endfacet
  facet normal 0.92388 0.382683 0
    outer loop
      vertex -30.2 33 13
      vertex -30.2 33 17.8
      vertex -29.7021 31.7979 13
    endloop
  endfacet
  facet normal 0.382683 -0.92388 0
    outer loop
      vertex -28.5 34.7 13
      vertex -28.5 34.7 17.8
      vertex -29.7021 34.2021 17.8
    endloop
  endfacet
  facet normal 0.382683 -0.92388 0
    outer loop
      vertex -29.7021 34.2021 13
      vertex -28.5 34.7 13
      vertex -29.7021 34.2021 17.8
    endloop
  endfacet
  facet normal -0.382683 -0.92388 0
    outer loop
      vertex -27.2979 34.2021 13
      vertex -27.2979 34.2021 17.8
      vertex -28.5 34.7 17.8
    endloop
  endfacet
  facet normal -0.382683 -0.92388 0
    outer loop
      vertex -28.5 34.7 13
      vertex -27.2979 34.2021 13
      vertex -28.5 34.7 17.8
    endloop
  endfacet
  facet normal -0.92388 -0.382683 0
    outer loop
      vertex -26.8 33 17.8
      vertex -27.2979 34.2021 17.8
      vertex -26.8 33 13
    endloop
  endfacet
  facet normal -0.92388 -0.382683 0
    outer loop
      vertex -26.8 33 13
      vertex -27.2979 34.2021 17.8
      vertex -27.2979 34.2021 13
    endloop
  endfacet
  facet normal -0.92388 0.382683 0
    outer loop
      vertex -26.8 33 17.8
      vertex -26.8 33 13
      vertex -27.2979 31.7979 17.8
    endloop
  endfacet
  facet normal -0.92388 0.382683 0
    outer loop
      vertex -27.2979 31.7979 17.8
      vertex -26.8 33 13
      vertex -27.2979 31.7979 13
    endloop
  endfacet
  facet normal -0.382683 0.92388 0
    outer loop
      vertex -27.2979 31.7979 17.8
      vertex -27.2979 31.7979 13
      vertex -28.5 31.3 17.8
    endloop
  endfacet
  facet normal -0.382683 0.92388 0
    outer loop
      vertex -28.5 31.3 17.8
      vertex -27.2979 31.7979 13
      vertex -28.5 31.3 13
    endloop
  endfacet
  facet normal 0.382683 0.92388 0
    outer loop
      vertex -28.5 31.3 17.8
      vertex -28.5 31.3 13
      vertex -29.7021 31.7979 17.8
    endloop
  endfacet
  facet normal 0.382683 0.92388 0
    outer loop
      vertex -29.7021 31.7979 17.8
      vertex -28.5 31.3 13
      vertex -29.7021 31.7979 13
    endloop
  endfacet
  facet normal 0.866025 -0.5 6.12323e-17
    outer loop
      vertex -20.675 34.8983 13
      vertex -20.675 34.8983 17.8
      vertex -24.5593 28.1704 17.8
    endloop
  endfacet
  facet normal 0.866025 -0.5 6.12323e-17
    outer loop
      vertex -24.85 27.667 16
      vertex -20.675 34.8983 13
      vertex -24.5593 28.1704 16
    endloop
  endfacet
  facet normal 0.866025 -0.5 6.12323e-17
    outer loop
      vertex -24.5593 28.1704 16
      vertex -20.675 34.8983 13
      vertex -24.5593 28.1704 17.8
    endloop
  endfacet
  facet normal 0.866025 -0.5 6.12323e-17
    outer loop
      vertex -24.85 27.667 13
      vertex -20.675 34.8983 13
      vertex -24.85 27.667 16
    endloop
  endfacet
  facet normal 0.866025 0.5 -6.12323e-17
    outer loop
      vertex -20.675 20.4357 17.8
      vertex -23.4265 25.2015 16
      vertex -23.4265 25.2015 17.8
    endloop
  endfacet
  facet normal 0.866025 0.5 -6.12323e-17
    outer loop
      vertex -20.675 20.4357 13
      vertex -23.4265 25.2015 16
      vertex -20.675 20.4357 17.8
    endloop
  endfacet
  facet normal 0.866025 0.5 -6.12323e-17
    outer loop
      vertex -24.85 27.667 16
      vertex -23.4265 25.2015 16
      vertex -20.675 20.4357 13
    endloop
  endfacet
  facet normal 0.866025 0.5 -6.12323e-17
    outer loop
      vertex -24.85 27.667 13
      vertex -24.85 27.667 16
      vertex -20.675 20.4357 13
    endloop
  endfacet
  facet normal 0 -1 1.22465e-16
    outer loop
      vertex -12.325 34.8983 13
      vertex -12.325 34.8983 17.8
      vertex -20.675 34.8983 17.8
    endloop
  endfacet
  facet normal 0 -1 1.22465e-16
    outer loop
      vertex -20.675 34.8983 13
      vertex -12.325 34.8983 13
      vertex -20.675 34.8983 17.8
    endloop
  endfacet
  facet normal -0.866025 -0.5 6.12323e-17
    outer loop
      vertex -8.15 27.667 16
      vertex -8.44066 28.1704 16
      vertex -8.15 27.667 13
    endloop
  endfacet
  facet normal -0.866025 -0.5 6.12323e-17
    outer loop
      vertex -12.325 34.8983 17.8
      vertex -8.44066 28.1704 16
      vertex -8.44066 28.1704 17.8
    endloop
  endfacet
  facet normal -0.866025 -0.5 6.12323e-17
    outer loop
      vertex -8.15 27.667 13
      vertex -8.44066 28.1704 16
      vertex -12.325 34.8983 17.8
    endloop
  endfacet
  facet normal -0.866025 -0.5 6.12323e-17
    outer loop
      vertex -8.15 27.667 13
      vertex -12.325 34.8983 17.8
      vertex -12.325 34.8983 13
    endloop
  endfacet
  facet normal -0.866025 0.5 -6.12323e-17
    outer loop
      vertex -9.57348 25.2015 17.8
      vertex -9.57348 25.2015 16
      vertex -12.325 20.4357 17.8
    endloop
  endfacet
  facet normal -0.866025 0.5 -6.12323e-17
    outer loop
      vertex -8.15 27.667 13
      vertex -9.57348 25.2015 16
      vertex -8.15 27.667 16
    endloop
  endfacet
  facet normal -0.866025 0.5 -6.12323e-17
    outer loop
      vertex -12.325 20.4357 17.8
      vertex -9.57348 25.2015 16
      vertex -8.15 27.667 13
    endloop
  endfacet
  facet normal -0.866025 0.5 -6.12323e-17
    outer loop
      vertex -12.325 20.4357 17.8
      vertex -8.15 27.667 13
      vertex -12.325 20.4357 13
    endloop
  endfacet
  facet normal 0 1 -1.22465e-16
    outer loop
      vertex -12.325 20.4357 17.8
      vertex -12.325 20.4357 13
      vertex -20.675 20.4357 17.8
    endloop
  endfacet
  facet normal 0 1 -1.22465e-16
    outer loop
      vertex -20.675 20.4357 17.8
      vertex -12.325 20.4357 13
      vertex -20.675 20.4357 13
    endloop
  endfacet
  facet normal 0.92388 -0.382683 0
    outer loop
      vertex -5.70208 26.2021 13
      vertex -5.70208 26.2021 16
      vertex -6.2 25 16
    endloop
  endfacet
  facet normal 0.92388 -0.382683 0
    outer loop
      vertex -6.2 25 13
      vertex -5.70208 26.2021 13
      vertex -6.2 25 16
    endloop
  endfacet
  facet normal 0.92388 0.382683 0
    outer loop
      vertex -6.2 25 16
      vertex -5.70208 23.7979 16
      vertex -5.70208 23.7979 13
    endloop
  endfacet
  facet normal 0.92388 0.382683 0
    outer loop
      vertex -6.2 25 13
      vertex -6.2 25 16
      vertex -5.70208 23.7979 13
    endloop
  endfacet
  facet normal 0.382683 -0.92388 0
    outer loop
      vertex -4.5 26.7 13
      vertex -4.5 26.7 16
      vertex -5.70208 26.2021 16
    endloop
  endfacet
  facet normal 0.382683 -0.92388 0
    outer loop
      vertex -5.70208 26.2021 13
      vertex -4.5 26.7 13
      vertex -5.70208 26.2021 16
    endloop
  endfacet
  facet normal -0.382683 -0.92388 0
    outer loop
      vertex -3.29792 26.2021 13
      vertex -3.29792 26.2021 16
      vertex -4.5 26.7 16
    endloop
  endfacet
  facet normal -0.382683 -0.92388 0
    outer loop
      vertex -4.5 26.7 13
      vertex -3.29792 26.2021 13
      vertex -4.5 26.7 16
    endloop
  endfacet
  facet normal -0.92388 -0.382683 0
    outer loop
      vertex -2.8 25 16
      vertex -3.29792 26.2021 16
      vertex -2.8 25 13
    endloop
  endfacet
  facet normal -0.92388 -0.382683 0
    outer loop
      vertex -2.8 25 13
      vertex -3.29792 26.2021 16
      vertex -3.29792 26.2021 13
    endloop
  endfacet
  facet normal -0.92388 0.382683 0
    outer loop
      vertex -2.8 25 16
      vertex -2.8 25 13
      vertex -3.29792 23.7979 16
    endloop
  endfacet
  facet normal -0.92388 0.382683 0
    outer loop
      vertex -3.29792 23.7979 16
      vertex -2.8 25 13
      vertex -3.29792 23.7979 13
    endloop
  endfacet
  facet normal -0.382683 0.92388 0
    outer loop
      vertex -3.29792 23.7979 16
      vertex -3.29792 23.7979 13
      vertex -4.5 23.3 16
    endloop
  endfacet
  facet normal -0.382683 0.92388 0
    outer loop
      vertex -4.5 23.3 16
      vertex -3.29792 23.7979 13
      vertex -4.5 23.3 13
    endloop
  endfacet
  facet normal 0.382683 0.92388 0
    outer loop
      vertex -4.5 23.3 16
      vertex -4.5 23.3 13
      vertex -5.70208 23.7979 16
    endloop
  endfacet
  facet normal 0.382683 0.92388 0
    outer loop
      vertex -5.70208 23.7979 16
      vertex -4.5 23.3 13
      vertex -5.70208 23.7979 13
    endloop
  endfacet
  facet normal 0.92388 -0.382683 0
    outer loop
      vertex -5.70208 34.2021 13
      vertex -5.70208 34.2021 17.8
      vertex -6.2 33 17.8
    endloop
  endfacet
  facet normal 0.92388 -0.382683 0
    outer loop
      vertex -6.2 33 13
      vertex -5.70208 34.2021 13
      vertex -6.2 33 17.8
    endloop
  endfacet
  facet normal 0.92388 0.382683 0
    outer loop
      vertex -6.2 33 17.8
      vertex -5.70208 31.7979 17.8
      vertex -5.70208 31.7979 13
    endloop
  endfacet
  facet normal 0.92388 0.382683 0
    outer loop
      vertex -6.2 33 13
      vertex -6.2 33 17.8
      vertex -5.70208 31.7979 13
    endloop
  endfacet
  facet normal 0.382683 -0.92388 0
    outer loop
      vertex -4.5 34.7 13
      vertex -4.5 34.7 17.8
      vertex -5.70208 34.2021 17.8
    endloop
  endfacet
  facet normal 0.382683 -0.92388 0
    outer loop
      vertex -5.70208 34.2021 13
      vertex -4.5 34.7 13
      vertex -5.70208 34.2021 17.8
    endloop
  endfacet
  facet normal -0.382683 -0.92388 0
    outer loop
      vertex -3.29792 34.2021 13
      vertex -3.29792 34.2021 17.8
      vertex -4.5 34.7 17.8
    endloop
  endfacet
  facet normal -0.382683 -0.92388 0
    outer loop
      vertex -4.5 34.7 13
      vertex -3.29792 34.2021 13
      vertex -4.5 34.7 17.8
    endloop
  endfacet
  facet normal -0.92388 -0.382683 0
    outer loop
      vertex -2.8 33 17.8
      vertex -3.29792 34.2021 17.8
      vertex -2.8 33 13
    endloop
  endfacet
  facet normal -0.92388 -0.382683 0
    outer loop
      vertex -2.8 33 13
      vertex -3.29792 34.2021 17.8
      vertex -3.29792 34.2021 13
    endloop
  endfacet
  facet normal -0.92388 0.382683 0
    outer loop
      vertex -2.8 33 17.8
      vertex -2.8 33 13
      vertex -3.29792 31.7979 17.8
    endloop
  endfacet
  facet normal -0.92388 0.382683 0
    outer loop
      vertex -3.29792 31.7979 17.8
      vertex -2.8 33 13
      vertex -3.29792 31.7979 13
    endloop
  endfacet
  facet normal -0.382683 0.92388 0
    outer loop
      vertex -3.29792 31.7979 17.8
      vertex -3.29792 31.7979 13
      vertex -4.5 31.3 17.8
    endloop
  endfacet
  facet normal -0.382683 0.92388 0
    outer loop
      vertex -4.5 31.3 17.8
      vertex -3.29792 31.7979 13
      vertex -4.5 31.3 13
    endloop
  endfacet
  facet normal 0.382683 0.92388 0
    outer loop
      vertex -4.5 31.3 17.8
      vertex -4.5 31.3 13
      vertex -5.70208 31.7979 17.8
    endloop
  endfacet
  facet normal 0.382683 0.92388 0
    outer loop
      vertex -5.70208 31.7979 17.8
      vertex -4.5 31.3 13
      vertex -5.70208 31.7979 13
    endloop
  endfacet
  facet normal 0 1 0
    outer loop
      vertex -33 37.9 17.1345
      vertex -33 37.9 17.8
      vertex -23.85 37.9 17.1345
    endloop
  endfacet
  facet normal 0 1 0
    outer loop
      vertex -23.85 37.9 17.1345
      vertex -33 37.9 17.8
      vertex -23.85 37.9 17.8
    endloop
  endfacet
  facet normal -0.195089 0.980785 0
    outer loop
      vertex -33.3444 37.8315 17.0158
      vertex -33.3444 37.8315 17.8
      vertex -33 37.9 17.1345
    endloop
  endfacet
  facet normal -0.195089 0.980785 0
    outer loop
      vertex -33 37.9 17.1345
      vertex -33.3444 37.8315 17.8
      vertex -33 37.9 17.8
    endloop
  endfacet
  facet normal -0.555571 0.831469 0
    outer loop
      vertex -33.6364 37.6364 16.6779
      vertex -33.6364 37.6364 17.8
      vertex -33.3444 37.8315 17.0158
    endloop
  endfacet
  facet normal -0.555571 0.831469 0
    outer loop
      vertex -33.3444 37.8315 17.0158
      vertex -33.6364 37.6364 17.8
      vertex -33.3444 37.8315 17.8
    endloop
  endfacet
  facet normal -0.831469 0.555571 0
    outer loop
      vertex -33.8315 37.3444 16.1722
      vertex -33.8315 37.3444 17.8
      vertex -33.6364 37.6364 16.6779
    endloop
  endfacet
  facet normal -0.831469 0.555571 0
    outer loop
      vertex -33.6364 37.6364 16.6779
      vertex -33.8315 37.3444 17.8
      vertex -33.6364 37.6364 17.8
    endloop
  endfacet
  facet normal 0 1 0
    outer loop
      vertex -21.35 37.9 17.1345
      vertex -21.35 37.9 17.8
      vertex -11.65 37.9 17.1345
    endloop
  endfacet
  facet normal 0 1 0
    outer loop
      vertex -11.65 37.9 17.1345
      vertex -21.35 37.9 17.8
      vertex -11.65 37.9 17.8
    endloop
  endfacet
  facet normal 0 1 0
    outer loop
      vertex -9.15 37.9 17.1345
      vertex -9.15 37.9 17.8
      vertex 0 37.9 17.1345
    endloop
  endfacet
  facet normal 0 1 0
    outer loop
      vertex 0 37.9 17.1345
      vertex -9.15 37.9 17.8
      vertex 0 37.9 17.8
    endloop
  endfacet
  facet normal 0.195089 0.980785 0
    outer loop
      vertex 0 37.9 17.1345
      vertex 0 37.9 17.8
      vertex 0.344415 37.8315 17.0158
    endloop
  endfacet
  facet normal 0.195089 0.980785 0
    outer loop
      vertex 0.344415 37.8315 17.0158
      vertex 0 37.9 17.8
      vertex 0.344415 37.8315 17.8
    endloop
  endfacet
  facet normal 0.555571 0.831469 0
    outer loop
      vertex 0.344415 37.8315 17.0158
      vertex 0.344415 37.8315 17.8
      vertex 0.636396 37.6364 16.6779
    endloop
  endfacet
  facet normal 0.555571 0.831469 0
    outer loop
      vertex 0.636396 37.6364 16.6779
      vertex 0.344415 37.8315 17.8
      vertex 0.636396 37.6364 17.8
    endloop
  endfacet
  facet normal 0.831469 0.555571 0
    outer loop
      vertex 0.831492 37.3444 16.1722
      vertex 0.636396 37.6364 16.6779
      vertex 0.636396 37.6364 17.8
    endloop
  endfacet
  facet normal 0.831469 0.555571 0
    outer loop
      vertex 0.831492 37.3444 17.8
      vertex 0.831492 37.3444 16.1722
      vertex 0.636396 37.6364 17.8
    endloop
  endfacet
  facet normal 0.980785 0.195089 0
    outer loop
      vertex 0.9 37 15.5756
      vertex 0.831492 37.3444 16.1722
      vertex 0.831492 37.3444 17.8
    endloop
  endfacet
  facet normal 0.980785 0.195089 0
    outer loop
      vertex 0.9 37 17.8
      vertex 0.9 37 15.5756
      vertex 0.831492 37.3444 17.8
    endloop
  endfacet
  facet normal 0.991445 0.130526 0
    outer loop
      vertex -33.6 25 17.8
      vertex -33.4262 23.68 17.8
      vertex -33.4262 23.68 16
    endloop
  endfacet
  facet normal 0.991445 0.130526 0
    outer loop
      vertex -33.6 25 16
      vertex -33.6 25 17.8
      vertex -33.4262 23.68 16
    endloop
  endfacet
  facet normal 0.92388 0.382683 0
    outer loop
      vertex -33.4262 23.68 17.8
      vertex -32.9167 22.45 17.8
      vertex -32.9167 22.45 16
    endloop
  endfacet
  facet normal 0.92388 0.382683 0
    outer loop
      vertex -33.4262 23.68 16
      vertex -33.4262 23.68 17.8
      vertex -32.9167 22.45 16
    endloop
  endfacet
  facet normal 0.793353 0.608761 0
    outer loop
      vertex -32.9167 22.45 17.8
      vertex -32.1062 21.3938 17.8
      vertex -32.1062 21.3938 16
    endloop
  endfacet
  facet normal 0.793353 0.608761 0
    outer loop
      vertex -32.9167 22.45 16
      vertex -32.9167 22.45 17.8
      vertex -32.1062 21.3938 16
    endloop
  endfacet
  facet normal 0.608761 0.793353 0
    outer loop
      vertex -31.05 20.5833 17.8
      vertex -31.05 20.5833 16
      vertex -32.1062 21.3938 17.8
    endloop
  endfacet
  facet normal 0.608761 0.793353 0
    outer loop
      vertex -32.1062 21.3938 17.8
      vertex -31.05 20.5833 16
      vertex -32.1062 21.3938 16
    endloop
  endfacet
  facet normal 0.382683 0.92388 0
    outer loop
      vertex -29.82 20.0738 17.8
      vertex -29.82 20.0738 16
      vertex -31.05 20.5833 17.8
    endloop
  endfacet
  facet normal 0.382683 0.92388 0
    outer loop
      vertex -31.05 20.5833 17.8
      vertex -29.82 20.0738 16
      vertex -31.05 20.5833 16
    endloop
  endfacet
  facet normal 0.130526 0.991445 0
    outer loop
      vertex -28.5 19.9 17.8
      vertex -28.5 19.9 16
      vertex -29.82 20.0738 17.8
    endloop
  endfacet
  facet normal 0.130526 0.991445 0
    outer loop
      vertex -29.82 20.0738 17.8
      vertex -28.5 19.9 16
      vertex -29.82 20.0738 16
    endloop
  endfacet
  facet normal -0.130526 0.991445 0
    outer loop
      vertex -27.18 20.0738 17.8
      vertex -27.18 20.0738 16
      vertex -28.5 19.9 17.8
    endloop
  endfacet
  facet normal -0.130526 0.991445 0
    outer loop
      vertex -28.5 19.9 17.8
      vertex -27.18 20.0738 16
      vertex -28.5 19.9 16
    endloop
  endfacet
  facet normal -0.382683 0.92388 0
    outer loop
      vertex -25.95 20.5833 17.8
      vertex -25.95 20.5833 16
      vertex -27.18 20.0738 17.8
    endloop
  endfacet
  facet normal -0.382683 0.92388 0
    outer loop
      vertex -27.18 20.0738 17.8
      vertex -25.95 20.5833 16
      vertex -27.18 20.0738 16
    endloop
  endfacet
  facet normal -0.608761 0.793353 0
    outer loop
      vertex -24.8938 21.3938 17.8
      vertex -24.8938 21.3938 16
      vertex -25.95 20.5833 17.8
    endloop
  endfacet
  facet normal -0.608761 0.793353 0
    outer loop
      vertex -25.95 20.5833 17.8
      vertex -24.8938 21.3938 16
      vertex -25.95 20.5833 16
    endloop
  endfacet
  facet normal -0.793353 0.608761 0
    outer loop
      vertex -24.0833 22.45 17.8
      vertex -24.0833 22.45 16
      vertex -24.8938 21.3938 17.8
    endloop
  endfacet
  facet normal -0.793353 0.608761 0
    outer loop
      vertex -24.8938 21.3938 17.8
      vertex -24.0833 22.45 16
      vertex -24.8938 21.3938 16
    endloop
  endfacet
  facet normal -0.92388 0.382683 0
    outer loop
      vertex -23.5738 23.68 17.8
      vertex -23.5738 23.68 16
      vertex -24.0833 22.45 17.8
    endloop
  endfacet
  facet normal -0.92388 0.382683 0
    outer loop
      vertex -24.0833 22.45 17.8
      vertex -23.5738 23.68 16
      vertex -24.0833 22.45 16
    endloop
  endfacet
  facet normal -0.991445 0.130526 0
    outer loop
      vertex -23.4 25 17.8
      vertex -23.4 25 16
      vertex -23.5738 23.68 17.8
    endloop
  endfacet
  facet normal -0.991445 0.130526 0
    outer loop
      vertex -23.5738 23.68 17.8
      vertex -23.4 25 16
      vertex -23.5738 23.68 16
    endloop
  endfacet
  facet normal -0.991445 -0.130526 0
    outer loop
      vertex -23.4 25 16
      vertex -23.4 25 17.8
      vertex -23.4265 25.2015 16
    endloop
  endfacet
  facet normal -0.991445 -0.130526 0
    outer loop
      vertex -23.4265 25.2015 16
      vertex -23.4 25 17.8
      vertex -23.4265 25.2015 17.8
    endloop
  endfacet
  facet normal 0.991445 -0.130526 0
    outer loop
      vertex -9.57348 25.2015 16
      vertex -9.57348 25.2015 17.8
      vertex -9.6 25 17.8
    endloop
  endfacet
  facet normal 0.991445 -0.130526 0
    outer loop
      vertex -9.6 25 16
      vertex -9.57348 25.2015 16
      vertex -9.6 25 17.8
    endloop
  endfacet
  facet normal 0.991445 0.130526 0
    outer loop
      vertex -9.6 25 17.8
      vertex -9.42622 23.68 17.8
      vertex -9.42622 23.68 16
    endloop
  endfacet
  facet normal 0.991445 0.130526 0
    outer loop
      vertex -9.6 25 16
      vertex -9.6 25 17.8
      vertex -9.42622 23.68 16
    endloop
  endfacet
  facet normal 0.92388 0.382683 0
    outer loop
      vertex -9.42622 23.68 17.8
      vertex -8.91673 22.45 17.8
      vertex -8.91673 22.45 16
    endloop
  endfacet
  facet normal 0.92388 0.382683 0
    outer loop
      vertex -9.42622 23.68 16
      vertex -9.42622 23.68 17.8
      vertex -8.91673 22.45 16
    endloop
  endfacet
  facet normal 0.793353 0.608761 0
    outer loop
      vertex -8.91673 22.45 17.8
      vertex -8.10624 21.3938 17.8
      vertex -8.10624 21.3938 16
    endloop
  endfacet
  facet normal 0.793353 0.608761 0
    outer loop
      vertex -8.91673 22.45 16
      vertex -8.91673 22.45 17.8
      vertex -8.10624 21.3938 16
    endloop
  endfacet
  facet normal 0.608761 0.793353 0
    outer loop
      vertex -7.05 20.5833 17.8
      vertex -7.05 20.5833 16
      vertex -8.10624 21.3938 17.8
    endloop
  endfacet
  facet normal 0.608761 0.793353 0
    outer loop
      vertex -8.10624 21.3938 17.8
      vertex -7.05 20.5833 16
      vertex -8.10624 21.3938 16
    endloop
  endfacet
  facet normal 0.382683 0.92388 0
    outer loop
      vertex -5.81998 20.0738 17.8
      vertex -5.81998 20.0738 16
      vertex -7.05 20.5833 17.8
    endloop
  endfacet
  facet normal 0.382683 0.92388 0
    outer loop
      vertex -7.05 20.5833 17.8
      vertex -5.81998 20.0738 16
      vertex -7.05 20.5833 16
    endloop
  endfacet
  facet normal 0.130526 0.991445 0
    outer loop
      vertex -4.5 19.9 17.8
      vertex -4.5 19.9 16
      vertex -5.81998 20.0738 17.8
    endloop
  endfacet
  facet normal 0.130526 0.991445 0
    outer loop
      vertex -5.81998 20.0738 17.8
      vertex -4.5 19.9 16
      vertex -5.81998 20.0738 16
    endloop
  endfacet
  facet normal -0.130526 0.991445 0
    outer loop
      vertex -3.18002 20.0738 17.8
      vertex -3.18002 20.0738 16
      vertex -4.5 19.9 17.8
    endloop
  endfacet
  facet normal -0.130526 0.991445 0
    outer loop
      vertex -4.5 19.9 17.8
      vertex -3.18002 20.0738 16
      vertex -4.5 19.9 16
    endloop
  endfacet
  facet normal -0.382683 0.92388 0
    outer loop
      vertex -1.95 20.5833 17.8
      vertex -1.95 20.5833 16
      vertex -3.18002 20.0738 17.8
    endloop
  endfacet
  facet normal -0.382683 0.92388 0
    outer loop
      vertex -3.18002 20.0738 17.8
      vertex -1.95 20.5833 16
      vertex -3.18002 20.0738 16
    endloop
  endfacet
  facet normal -0.608761 0.793353 0
    outer loop
      vertex -0.893755 21.3938 17.8
      vertex -0.893755 21.3938 16
      vertex -1.95 20.5833 17.8
    endloop
  endfacet
  facet normal -0.608761 0.793353 0
    outer loop
      vertex -1.95 20.5833 17.8
      vertex -0.893755 21.3938 16
      vertex -1.95 20.5833 16
    endloop
  endfacet
  facet normal -0.793353 0.608761 0
    outer loop
      vertex -0.08327 22.45 17.8
      vertex -0.08327 22.45 16
      vertex -0.893755 21.3938 17.8
    endloop
  endfacet
  facet normal -0.793353 0.608761 0
    outer loop
      vertex -0.893755 21.3938 17.8
      vertex -0.08327 22.45 16
      vertex -0.893755 21.3938 16
    endloop
  endfacet
  facet normal -0.92388 0.382683 0
    outer loop
      vertex 0.426222 23.68 17.8
      vertex 0.426222 23.68 16
      vertex -0.08327 22.45 17.8
    endloop
  endfacet
  facet normal -0.92388 0.382683 0
    outer loop
      vertex -0.08327 22.45 17.8
      vertex 0.426222 23.68 16
      vertex -0.08327 22.45 16
    endloop
  endfacet
  facet normal -0.991445 0.130526 0
    outer loop
      vertex 0.6 25 17.8
      vertex 0.6 25 16
      vertex 0.426222 23.68 17.8
    endloop
  endfacet
  facet normal -0.991445 0.130526 0
    outer loop
      vertex 0.426222 23.68 17.8
      vertex 0.6 25 16
      vertex 0.426222 23.68 16
    endloop
  endfacet
  facet normal -0.991445 -0.130526 0
    outer loop
      vertex 0.6 25 17.8
      vertex 0.426222 26.32 17.8
      vertex 0.6 25 16
    endloop
  endfacet
  facet normal -0.991445 -0.130526 0
    outer loop
      vertex 0.6 25 16
      vertex 0.426222 26.32 17.8
      vertex 0.426222 26.32 16
    endloop
  endfacet
  facet normal -0.92388 -0.382683 0
    outer loop
      vertex 0.426222 26.32 17.8
      vertex -0.08327 27.55 17.8
      vertex 0.426222 26.32 16
    endloop
  endfacet
  facet normal -0.92388 -0.382683 0
    outer loop
      vertex 0.426222 26.32 16
      vertex -0.08327 27.55 17.8
      vertex -0.08327 27.55 16
    endloop
  endfacet
  facet normal -0.793353 -0.608761 0
    outer loop
      vertex -0.08327 27.55 17.8
      vertex -0.893755 28.6062 17.8
      vertex -0.08327 27.55 16
    endloop
  endfacet
  facet normal -0.793353 -0.608761 0
    outer loop
      vertex -0.08327 27.55 16
      vertex -0.893755 28.6062 17.8
      vertex -0.893755 28.6062 16
    endloop
  endfacet
  facet normal -0.608761 -0.793353 0
    outer loop
      vertex -0.893755 28.6062 16
      vertex -0.893755 28.6062 17.8
      vertex -1.95 29.4167 17.8
    endloop
  endfacet
  facet normal -0.608761 -0.793353 0
    outer loop
      vertex -1.95 29.4167 16
      vertex -0.893755 28.6062 16
      vertex -1.95 29.4167 17.8
    endloop
  endfacet
  facet normal -0.382683 -0.92388 0
    outer loop
      vertex -1.95 29.4167 16
      vertex -1.95 29.4167 17.8
      vertex -3.18002 29.9262 17.8
    endloop
  endfacet
  facet normal -0.382683 -0.92388 0
    outer loop
      vertex -3.18002 29.9262 16
      vertex -1.95 29.4167 16
      vertex -3.18002 29.9262 17.8
    endloop
  endfacet
  facet normal -0.130526 -0.991445 0
    outer loop
      vertex -3.18002 29.9262 16
      vertex -3.18002 29.9262 17.8
      vertex -4.5 30.1 17.8
    endloop
  endfacet
  facet normal -0.130526 -0.991445 0
    outer loop
      vertex -4.5 30.1 16
      vertex -3.18002 29.9262 16
      vertex -4.5 30.1 17.8
    endloop
  endfacet
  facet normal 0.130526 -0.991445 0
    outer loop
      vertex -4.5 30.1 16
      vertex -4.5 30.1 17.8
      vertex -5.81998 29.9262 17.8
    endloop
  endfacet
  facet normal 0.130526 -0.991445 0
    outer loop
      vertex -5.81998 29.9262 16
      vertex -4.5 30.1 16
      vertex -5.81998 29.9262 17.8
    endloop
  endfacet
  facet normal 0.382683 -0.92388 0
    outer loop
      vertex -5.81998 29.9262 16
      vertex -5.81998 29.9262 17.8
      vertex -7.05 29.4167 17.8
    endloop
  endfacet
  facet normal 0.382683 -0.92388 0
    outer loop
      vertex -7.05 29.4167 16
      vertex -5.81998 29.9262 16
      vertex -7.05 29.4167 17.8
    endloop
  endfacet
  facet normal 0.608761 -0.793353 0
    outer loop
      vertex -7.05 29.4167 16
      vertex -7.05 29.4167 17.8
      vertex -8.10624 28.6062 17.8
    endloop
  endfacet
  facet normal 0.608761 -0.793353 0
    outer loop
      vertex -8.10624 28.6062 16
      vertex -7.05 29.4167 16
      vertex -8.10624 28.6062 17.8
    endloop
  endfacet
  facet normal 0.793353 -0.608761 0
    outer loop
      vertex -8.10624 28.6062 16
      vertex -8.10624 28.6062 17.8
      vertex -8.44066 28.1704 17.8
    endloop
  endfacet
  facet normal 0.793353 -0.608761 0
    outer loop
      vertex -8.44066 28.1704 16
      vertex -8.10624 28.6062 16
      vertex -8.44066 28.1704 17.8
    endloop
  endfacet
  facet normal -0.793353 -0.608761 0
    outer loop
      vertex -24.5593 28.1704 17.8
      vertex -24.8938 28.6062 17.8
      vertex -24.5593 28.1704 16
    endloop
  endfacet
  facet normal -0.793353 -0.608761 0
    outer loop
      vertex -24.5593 28.1704 16
      vertex -24.8938 28.6062 17.8
      vertex -24.8938 28.6062 16
    endloop
  endfacet
  facet normal -0.608761 -0.793353 0
    outer loop
      vertex -24.8938 28.6062 16
      vertex -24.8938 28.6062 17.8
      vertex -25.95 29.4167 17.8
    endloop
  endfacet
  facet normal -0.608761 -0.793353 0
    outer loop
      vertex -25.95 29.4167 16
      vertex -24.8938 28.6062 16
      vertex -25.95 29.4167 17.8
    endloop
  endfacet
  facet normal -0.382683 -0.92388 0
    outer loop
      vertex -25.95 29.4167 16
      vertex -25.95 29.4167 17.8
      vertex -27.18 29.9262 17.8
    endloop
  endfacet
  facet normal -0.382683 -0.92388 0
    outer loop
      vertex -27.18 29.9262 16
      vertex -25.95 29.4167 16
      vertex -27.18 29.9262 17.8
    endloop
  endfacet
  facet normal -0.130526 -0.991445 0
    outer loop
      vertex -27.18 29.9262 16
      vertex -27.18 29.9262 17.8
      vertex -28.5 30.1 17.8
    endloop
  endfacet
  facet normal -0.130526 -0.991445 0
    outer loop
      vertex -28.5 30.1 16
      vertex -27.18 29.9262 16
      vertex -28.5 30.1 17.8
    endloop
  endfacet
  facet normal 0.130526 -0.991445 0
    outer loop
      vertex -28.5 30.1 16
      vertex -28.5 30.1 17.8
      vertex -29.82 29.9262 17.8
    endloop
  endfacet
  facet normal 0.130526 -0.991445 0
    outer loop
      vertex -29.82 29.9262 16
      vertex -28.5 30.1 16
      vertex -29.82 29.9262 17.8
    endloop
  endfacet
  facet normal 0.382683 -0.92388 0
    outer loop
      vertex -29.82 29.9262 16
      vertex -29.82 29.9262 17.8
      vertex -31.05 29.4167 17.8
    endloop
  endfacet
  facet normal 0.382683 -0.92388 0
    outer loop
      vertex -31.05 29.4167 16
      vertex -29.82 29.9262 16
      vertex -31.05 29.4167 17.8
    endloop
  endfacet
  facet normal 0.608761 -0.793353 0
    outer loop
      vertex -31.05 29.4167 16
      vertex -31.05 29.4167 17.8
      vertex -32.1062 28.6062 17.8
    endloop
  endfacet
  facet normal 0.608761 -0.793353 0
    outer loop
      vertex -32.1062 28.6062 16
      vertex -31.05 29.4167 16
      vertex -32.1062 28.6062 17.8
    endloop
  endfacet
  facet normal 0.793353 -0.608761 0
    outer loop
      vertex -32.1062 28.6062 16
      vertex -32.1062 28.6062 17.8
      vertex -32.9167 27.55 17.8
    endloop
  endfacet
  facet normal 0.793353 -0.608761 0
    outer loop
      vertex -32.9167 27.55 16
      vertex -32.1062 28.6062 16
      vertex -32.9167 27.55 17.8
    endloop
  endfacet
  facet normal 0.92388 -0.382683 0
    outer loop
      vertex -32.9167 27.55 16
      vertex -32.9167 27.55 17.8
      vertex -33.4262 26.32 17.8
    endloop
  endfacet
  facet normal 0.92388 -0.382683 0
    outer loop
      vertex -33.4262 26.32 16
      vertex -32.9167 27.55 16
      vertex -33.4262 26.32 17.8
    endloop
  endfacet
  facet normal 0.991445 -0.130526 0
    outer loop
      vertex -33.4262 26.32 16
      vertex -33.4262 26.32 17.8
      vertex -33.6 25 17.8
    endloop
  endfacet
  facet normal 0.991445 -0.130526 0
    outer loop
      vertex -33.6 25 16
      vertex -33.4262 26.32 16
      vertex -33.6 25 17.8
    endloop
  endfacet
  facet normal 0 0 1
    outer loop
      vertex -33.4262 23.68 16
      vertex -32.9167 22.45 16
      vertex -32.1062 21.3938 16
    endloop
  endfacet
  facet normal 0 0 1
    outer loop
      vertex -29.82 20.0738 16
      vertex -33.4262 23.68 16
      vertex -31.05 20.5833 16
    endloop
  endfacet
  facet normal 0 0 1
    outer loop
      vertex -31.05 20.5833 16
      vertex -33.4262 23.68 16
      vertex -32.1062 21.3938 16
    endloop
  endfacet
  facet normal 0 0 1
    outer loop
      vertex -28.5 19.9 16
      vertex -33.4262 23.68 16
      vertex -29.82 20.0738 16
    endloop
  endfacet
  facet normal 0 0 1
    outer loop
      vertex -27.18 20.0738 16
      vertex -33.4262 23.68 16
      vertex -28.5 19.9 16
    endloop
  endfacet
  facet normal 0 0 1
    outer loop
      vertex -25.95 20.5833 16
      vertex -33.4262 23.68 16
      vertex -27.18 20.0738 16
    endloop
  endfacet
  facet normal 0 0 1
    outer loop
      vertex -24.8938 21.3938 16
      vertex -33.4262 23.68 16
      vertex -25.95 20.5833 16
    endloop
  endfacet
  facet normal 0 0 1
    outer loop
      vertex -24.0833 22.45 16
      vertex -33.4262 23.68 16
      vertex -24.8938 21.3938 16
    endloop
  endfacet
  facet normal 0 0 1
    outer loop
      vertex -28.5 23.3 16
      vertex -33.4262 23.68 16
      vertex -24.0833 22.45 16
    endloop
  endfacet
  facet normal 0 0 1
    outer loop
      vertex -28.5 23.3 16
      vertex -29.7021 23.7979 16
      vertex -33.4262 23.68 16
    endloop
  endfacet
  facet normal 0 0 1
    outer loop
      vertex -28.5 26.7 16
      vertex -27.2979 26.2021 16
      vertex -24.85 27.667 16
    endloop
  endfacet
  facet normal 0 0 1
    outer loop
      vertex -28.5 26.7 16
      vertex -24.85 27.667 16
      vertex -24.5593 28.1704 16
    endloop
  endfacet
  facet normal 0 0 1
    outer loop
      vertex -27.18 29.9262 16
      vertex -33.4262 23.68 16
      vertex -25.95 29.4167 16
    endloop
  endfacet
  facet normal 0 0 1
    outer loop
      vertex -28.5 30.1 16
      vertex -33.4262 23.68 16
      vertex -27.18 29.9262 16
    endloop
  endfacet
  facet normal 0 0 1
    outer loop
      vertex -29.82 29.9262 16
      vertex -33.4262 23.68 16
      vertex -28.5 30.1 16
    endloop
  endfacet
  facet normal 0 0 1
    outer loop
      vertex -31.05 29.4167 16
      vertex -33.4262 23.68 16
      vertex -29.82 29.9262 16
    endloop
  endfacet
  facet normal 0 0 1
    outer loop
      vertex -32.1062 28.6062 16
      vertex -33.4262 23.68 16
      vertex -31.05 29.4167 16
    endloop
  endfacet
  facet normal 0 0 1
    outer loop
      vertex -32.9167 27.55 16
      vertex -33.4262 23.68 16
      vertex -32.1062 28.6062 16
    endloop
  endfacet
  facet normal 0 0 1
    outer loop
      vertex -33.4262 26.32 16
      vertex -33.4262 23.68 16
      vertex -32.9167 27.55 16
    endloop
  endfacet
  facet normal 0 0 1
    outer loop
      vertex -33.6 25 16
      vertex -33.4262 23.68 16
      vertex -33.4262 26.32 16
    endloop
  endfacet
  facet normal 0 0 1
    outer loop
      vertex -26.8 25 16
      vertex -27.2979 23.7979 16
      vertex -23.4 25 16
    endloop
  endfacet
  facet normal 0 0 1
    outer loop
      vertex -25.95 29.4167 16
      vertex -29.7021 26.2021 16
      vertex -24.8938 28.6062 16
    endloop
  endfacet
  facet normal 0 0 1
    outer loop
      vertex -25.95 29.4167 16
      vertex -33.4262 23.68 16
      vertex -29.7021 26.2021 16
    endloop
  endfacet
  facet normal 0 0 1
    outer loop
      vertex -29.7021 26.2021 16
      vertex -28.5 26.7 16
      vertex -24.8938 28.6062 16
    endloop
  endfacet
  facet normal 0 0 1
    outer loop
      vertex -24.85 27.667 16
      vertex -27.2979 26.2021 16
      vertex -23.4265 25.2015 16
    endloop
  endfacet
  facet normal 0 0 1
    outer loop
      vertex -28.5 26.7 16
      vertex -24.5593 28.1704 16
      vertex -24.8938 28.6062 16
    endloop
  endfacet
  facet normal 0 0 1
    outer loop
      vertex -23.4 25 16
      vertex -27.2979 23.7979 16
      vertex -23.5738 23.68 16
    endloop
  endfacet
  facet normal 0 0 1
    outer loop
      vertex -23.5738 23.68 16
      vertex -28.5 23.3 16
      vertex -24.0833 22.45 16
    endloop
  endfacet
  facet normal 0 0 1
    outer loop
      vertex -27.2979 26.2021 16
      vertex -26.8 25 16
      vertex -23.4265 25.2015 16
    endloop
  endfacet
  facet normal 0 0 1
    outer loop
      vertex -26.8 25 16
      vertex -23.4 25 16
      vertex -23.4265 25.2015 16
    endloop
  endfacet
  facet normal 0 0 1
    outer loop
      vertex -27.2979 23.7979 16
      vertex -28.5 23.3 16
      vertex -23.5738 23.68 16
    endloop
  endfacet
  facet normal 0 0 1
    outer loop
      vertex -29.7021 23.7979 16
      vertex -30.2 25 16
      vertex -33.4262 23.68 16
    endloop
  endfacet
  facet normal 0 0 1
    outer loop
      vertex -30.2 25 16
      vertex -29.7021 26.2021 16
      vertex -33.4262 23.68 16
    endloop
  endfacet
  facet normal 0 0 1
    outer loop
      vertex -9.42622 23.68 16
      vertex -8.91673 22.45 16
      vertex -8.10624 21.3938 16
    endloop
  endfacet
  facet normal 0 0 1
    outer loop
      vertex -5.81998 20.0738 16
      vertex -9.42622 23.68 16
      vertex -7.05 20.5833 16
    endloop
  endfacet
  facet normal 0 0 1
    outer loop
      vertex -7.05 20.5833 16
      vertex -9.42622 23.68 16
      vertex -8.10624 21.3938 16
    endloop
  endfacet
  facet normal 0 0 1
    outer loop
      vertex -4.5 19.9 16
      vertex -9.42622 23.68 16
      vertex -5.81998 20.0738 16
    endloop
  endfacet
  facet normal 0 0 1
    outer loop
      vertex -3.18002 20.0738 16
      vertex -9.42622 23.68 16
      vertex -4.5 19.9 16
    endloop
  endfacet
  facet normal 0 0 1
    outer loop
      vertex -1.95 20.5833 16
      vertex -9.42622 23.68 16
      vertex -3.18002 20.0738 16
    endloop
  endfacet
  facet normal 0 0 1
    outer loop
      vertex -0.893755 21.3938 16
      vertex -9.42622 23.68 16
      vertex -1.95 20.5833 16
    endloop
  endfacet
  facet normal 0 0 1
    outer loop
      vertex -0.08327 22.45 16
      vertex -9.42622 23.68 16
      vertex -0.893755 21.3938 16
    endloop
  endfacet
  facet normal 0 0 1
    outer loop
      vertex -4.5 23.3 16
      vertex -9.42622 23.68 16
      vertex -0.08327 22.45 16
    endloop
  endfacet
  facet normal 0 0 1
    outer loop
      vertex -4.5 23.3 16
      vertex -5.70208 23.7979 16
      vertex -9.42622 23.68 16
    endloop
  endfacet
  facet normal 0 0 1
    outer loop
      vertex -3.29792 26.2021 16
      vertex -2.8 25 16
      vertex 0.426222 26.32 16
    endloop
  endfacet
  facet normal 0 0 1
    outer loop
      vertex -4.5 26.7 16
      vertex -0.08327 27.55 16
      vertex -0.893755 28.6062 16
    endloop
  endfacet
  facet normal 0 0 1
    outer loop
      vertex -4.5 26.7 16
      vertex -3.29792 26.2021 16
      vertex -0.08327 27.55 16
    endloop
  endfacet
  facet normal 0 0 1
    outer loop
      vertex -3.18002 29.9262 16
      vertex -9.42622 23.68 16
      vertex -1.95 29.4167 16
    endloop
  endfacet
  facet normal 0 0 1
    outer loop
      vertex -4.5 30.1 16
      vertex -9.42622 23.68 16
      vertex -3.18002 29.9262 16
    endloop
  endfacet
  facet normal 0 0 1
    outer loop
      vertex -5.81998 29.9262 16
      vertex -9.42622 23.68 16
      vertex -4.5 30.1 16
    endloop
  endfacet
  facet normal 0 0 1
    outer loop
      vertex -7.05 29.4167 16
      vertex -9.42622 23.68 16
      vertex -5.81998 29.9262 16
    endloop
  endfacet
  facet normal 0 0 1
    outer loop
      vertex -8.15 27.667 16
      vertex -9.42622 23.68 16
      vertex -7.05 29.4167 16
    endloop
  endfacet
  facet normal 0 0 1
    outer loop
      vertex -8.15 27.667 16
      vertex -9.57348 25.2015 16
      vertex -9.42622 23.68 16
    endloop
  endfacet
  facet normal 0 0 1
    outer loop
      vertex -8.10624 28.6062 16
      vertex -8.15 27.667 16
      vertex -7.05 29.4167 16
    endloop
  endfacet
  facet normal 0 0 1
    outer loop
      vertex -9.6 25 16
      vertex -9.42622 23.68 16
      vertex -9.57348 25.2015 16
    endloop
  endfacet
  facet normal 0 0 1
    outer loop
      vertex -2.8 25 16
      vertex -3.29792 23.7979 16
      vertex 0.6 25 16
    endloop
  endfacet
  facet normal 0 0 1
    outer loop
      vertex -1.95 29.4167 16
      vertex -5.70208 26.2021 16
      vertex -0.893755 28.6062 16
    endloop
  endfacet
  facet normal 0 0 1
    outer loop
      vertex -1.95 29.4167 16
      vertex -9.42622 23.68 16
      vertex -5.70208 26.2021 16
    endloop
  endfacet
  facet normal 0 0 1
    outer loop
      vertex -5.70208 26.2021 16
      vertex -4.5 26.7 16
      vertex -0.893755 28.6062 16
    endloop
  endfacet
  facet normal 0 0 1
    outer loop
      vertex -0.08327 27.55 16
      vertex -3.29792 26.2021 16
      vertex 0.426222 26.32 16
    endloop
  endfacet
  facet normal 0 0 1
    outer loop
      vertex 0.426222 26.32 16
      vertex -2.8 25 16
      vertex 0.6 25 16
    endloop
  endfacet
  facet normal 0 0 1
    outer loop
      vertex 0.6 25 16
      vertex -3.29792 23.7979 16
      vertex 0.426222 23.68 16
    endloop
  endfacet
  facet normal 0 0 1
    outer loop
      vertex 0.426222 23.68 16
      vertex -4.5 23.3 16
      vertex -0.08327 22.45 16
    endloop
  endfacet
  facet normal 0 0 1
    outer loop
      vertex -6.2 25 16
      vertex -5.70208 26.2021 16
      vertex -9.42622 23.68 16
    endloop
  endfacet
  facet normal 0 0 1
    outer loop
      vertex -3.29792 23.7979 16
      vertex -4.5 23.3 16
      vertex 0.426222 23.68 16
    endloop
  endfacet
  facet normal 0 0 1
    outer loop
      vertex -8.44066 28.1704 16
      vertex -8.15 27.667 16
      vertex -8.10624 28.6062 16
    endloop
  endfacet
  facet normal 0 0 1
    outer loop
      vertex -5.70208 23.7979 16
      vertex -6.2 25 16
      vertex -9.42622 23.68 16
    endloop
  endfacet
endsolid OpenSCAD_Model
